<svg width="11" height="18" viewBox="0 0 11 18" fill="none" xmlns="http://www.w3.org/2000/svg">
<g filter="url(#filter0_d_3_105)">
<path fill-rule="evenodd" clip-rule="evenodd" d="M6 0H4V1H3V7H2V8H1V15H0V16H9V8H8V7H7V1H6V0ZM6 1V7H7V8H8V9H2V8H3V7H4V1H6ZM8 11H2V15H8V11Z" fill="white"/>
<rect x="3" y="12" width="1" height="3" fill="#F580FF"/>
<rect x="5" y="12" width="1" height="3" fill="#F580FF"/>
<path d="M6 1H4V7H3V8H2V9H8V8H7V7H6V1Z" fill="#F580FF"/>
</g>
<defs>
<filter id="filter0_d_3_105" x="0" y="0" width="11" height="18" filterUnits="userSpaceOnUse" color-interpolation-filters="sRGB">
<feFlood flood-opacity="0" result="BackgroundImageFix"/>
<feColorMatrix in="SourceAlpha" type="matrix" values="0 0 0 0 0 0 0 0 0 0 0 0 0 0 0 0 0 0 127 0" result="hardAlpha"/>
<feOffset dx="1" dy="1"/>
<feGaussianBlur stdDeviation="0.5"/>
<feComposite in2="hardAlpha" operator="out"/>
<feColorMatrix type="matrix" values="0 0 0 0 0.627451 0 0 0 0 0.329412 0 0 0 0 0.854902 0 0 0 1 0"/>
<feBlend mode="normal" in2="BackgroundImageFix" result="effect1_dropShadow_3_105"/>
<feBlend mode="normal" in="SourceGraphic" in2="effect1_dropShadow_3_105" result="shape"/>
</filter>
</defs>
</svg>
