<svg width="18" height="17" viewBox="0 0 18 17" fill="none" xmlns="http://www.w3.org/2000/svg">
<g filter="url(#filter0_d_3_50)">
<path d="M9 12H1V13H0V14H1V15H8V14H10V13H9V12Z" fill="#F580FF"/>
<path fill-rule="evenodd" clip-rule="evenodd" d="M12 0H15V1H16V4H15V5H14V6H13V8H12V7H11V6H10V5H9V4H8V3H10V2H11V1H12V2H13V1H12V0ZM8 6H9V5H8V6ZM7 7H8V6H7V7ZM6 8H7V7H6V8ZM5 9H6V8H5V9ZM4 10H5V9H4V10ZM3 11H4V10H3V11ZM5 13H3V11H2V14H5V13ZM6 12H5V13H6V12ZM7 11H6V12H7V11ZM8 10H7V11H8V10ZM9 9H8V10H9V9ZM10 8V7H11V8H10ZM10 8H9V9H10V8Z" fill="white"/>
<rect x="12" y="1" width="1" height="1" fill="#F580FF"/>
<rect x="10" y="6" width="1" height="1" fill="#F580FF"/>
<rect x="9" y="7" width="1" height="1" fill="#F580FF"/>
<rect x="8" y="8" width="1" height="1" fill="#F580FF"/>
<rect x="5" y="11" width="1" height="1" fill="#F580FF"/>
<rect x="6" y="10" width="1" height="1" fill="#F580FF"/>
<rect x="7" y="9" width="1" height="1" fill="#F580FF"/>
<rect x="9" y="12" width="1" height="1" fill="#F580FF"/>
<rect x="10" y="13" width="1" height="1" fill="#F580FF"/>
<rect x="8" y="14" width="1" height="1" fill="#F580FF"/>
</g>
<defs>
<filter id="filter0_d_3_50" x="0" y="0" width="18" height="17" filterUnits="userSpaceOnUse" color-interpolation-filters="sRGB">
<feFlood flood-opacity="0" result="BackgroundImageFix"/>
<feColorMatrix in="SourceAlpha" type="matrix" values="0 0 0 0 0 0 0 0 0 0 0 0 0 0 0 0 0 0 127 0" result="hardAlpha"/>
<feOffset dx="1" dy="1"/>
<feGaussianBlur stdDeviation="0.5"/>
<feComposite in2="hardAlpha" operator="out"/>
<feColorMatrix type="matrix" values="0 0 0 0 0.627451 0 0 0 0 0.329412 0 0 0 0 0.854902 0 0 0 1 0"/>
<feBlend mode="normal" in2="BackgroundImageFix" result="effect1_dropShadow_3_50"/>
<feBlend mode="normal" in="SourceGraphic" in2="effect1_dropShadow_3_50" result="shape"/>
</filter>
</defs>
</svg>
