<svg width="16" height="15" viewBox="0 0 16 15" fill="none" xmlns="http://www.w3.org/2000/svg">
<g filter="url(#filter0_d_3_144)">
<path d="M2 0H0V1H1V2H2V3H3V4H4V5H5V6H6V7H7V8H8V9H9V10H10V11H11V12H12V13H14V12H13V11H12V10H11V9H10V8H9V7H8V6H7V5H6V4H5V3H4V2H3V1H2V0Z" fill="white"/>
</g>
<defs>
<filter id="filter0_d_3_144" x="0" y="0" width="16" height="15" filterUnits="userSpaceOnUse" color-interpolation-filters="sRGB">
<feFlood flood-opacity="0" result="BackgroundImageFix"/>
<feColorMatrix in="SourceAlpha" type="matrix" values="0 0 0 0 0 0 0 0 0 0 0 0 0 0 0 0 0 0 127 0" result="hardAlpha"/>
<feOffset dx="1" dy="1"/>
<feGaussianBlur stdDeviation="0.5"/>
<feComposite in2="hardAlpha" operator="out"/>
<feColorMatrix type="matrix" values="0 0 0 0 0.627451 0 0 0 0 0.329412 0 0 0 0 0.854902 0 0 0 1 0"/>
<feBlend mode="normal" in2="BackgroundImageFix" result="effect1_dropShadow_3_144"/>
<feBlend mode="normal" in="SourceGraphic" in2="effect1_dropShadow_3_144" result="shape"/>
</filter>
</defs>
</svg>
