<svg width="17" height="13" viewBox="0 0 17 13" fill="none" xmlns="http://www.w3.org/2000/svg">
<g filter="url(#filter0_d_3_162)">
<path fill-rule="evenodd" clip-rule="evenodd" d="M2 0H13V1H2V0ZM1 2H2V1H1V2ZM1 9V2H0V9H1ZM2 10V9H1V10H2ZM13 10H2V11H13V10ZM14 9H13V10H14V9ZM14 2H13V1H14V2ZM14 2V9H15V2H14Z" fill="white"/>
<path d="M13 1H2V2H1V9H2V10H13V9H14V2H13V1Z" fill="#F580FF"/>
</g>
<defs>
<filter id="filter0_d_3_162" x="0" y="0" width="17" height="13" filterUnits="userSpaceOnUse" color-interpolation-filters="sRGB">
<feFlood flood-opacity="0" result="BackgroundImageFix"/>
<feColorMatrix in="SourceAlpha" type="matrix" values="0 0 0 0 0 0 0 0 0 0 0 0 0 0 0 0 0 0 127 0" result="hardAlpha"/>
<feOffset dx="1" dy="1"/>
<feGaussianBlur stdDeviation="0.5"/>
<feComposite in2="hardAlpha" operator="out"/>
<feColorMatrix type="matrix" values="0 0 0 0 0.627451 0 0 0 0 0.329412 0 0 0 0 0.854902 0 0 0 1 0"/>
<feBlend mode="normal" in2="BackgroundImageFix" result="effect1_dropShadow_3_162"/>
<feBlend mode="normal" in="SourceGraphic" in2="effect1_dropShadow_3_162" result="shape"/>
</filter>
</defs>
</svg>
