<svg width="18" height="18" viewBox="0 0 18 18" fill="none" xmlns="http://www.w3.org/2000/svg">
<g filter="url(#filter0_d_1_8)">
<path d="M5 0H4V3H5V2H6V1H5V0Z" fill="white"/>
<path d="M5 4H4V6H5V4Z" fill="white"/>
<path d="M5 10H3V11H4V12H5V10Z" fill="white"/>
<path d="M13 6H12V4H13V6Z" fill="white"/>
<path d="M12 1H13V3H11V4H10V3H11V2H12V1Z" fill="white"/>
<path d="M7 3H8V4H9V5H8V4H7V3Z" fill="white"/>
<path d="M3 7H4V8H3V9H2V10V11H1H0V10H1V9H2V8H3V7Z" fill="white"/>
<path d="M12 7H13V8H14V9H15V10H16V11H15H14H13H12V10H13H14V9H13V8H12V7Z" fill="white"/>
<path d="M8 11H9V10H10H11V11H10H9V12H8V11Z" fill="white"/>
<path d="M6 13H7V14H6V15H5V16H4V15V14V13H5V14H6V13Z" fill="white"/>
</g>
<defs>
<filter id="filter0_d_1_8" x="0" y="0" width="18" height="18" filterUnits="userSpaceOnUse" color-interpolation-filters="sRGB">
<feFlood flood-opacity="0" result="BackgroundImageFix"/>
<feColorMatrix in="SourceAlpha" type="matrix" values="0 0 0 0 0 0 0 0 0 0 0 0 0 0 0 0 0 0 127 0" result="hardAlpha"/>
<feOffset dx="1" dy="1"/>
<feGaussianBlur stdDeviation="0.5"/>
<feComposite in2="hardAlpha" operator="out"/>
<feColorMatrix type="matrix" values="0 0 0 0 0.627451 0 0 0 0 0.329412 0 0 0 0 0.854902 0 0 0 1 0"/>
<feBlend mode="normal" in2="BackgroundImageFix" result="effect1_dropShadow_1_8"/>
<feBlend mode="normal" in="SourceGraphic" in2="effect1_dropShadow_1_8" result="shape"/>
</filter>
</defs>
</svg>
