<svg width="11" height="17" viewBox="0 0 11 17" fill="none" xmlns="http://www.w3.org/2000/svg">
<g filter="url(#filter0_d_3_88)">
<path fill-rule="evenodd" clip-rule="evenodd" d="M8 0H5V1H4V3H3V5H2V7H1V9H0V15H1V14H2V13H3V12H4V11H5V9H6V7H7V5H8V3H9V1H8V0ZM5 4V1H8V3H7V4H5ZM5 4V5H6V6H5V8H4V10H3V11H2V10H1V9H2V7H3V5H4V4H5Z" fill="white"/>
<path fill-rule="evenodd" clip-rule="evenodd" d="M5 1H8V2H6V4H5V2V1ZM6 5H5V6H6V5ZM4 7H5V8H4V7ZM4 9H3V10H4V9Z" fill="#F580FF"/>
<rect x="4" y="4" width="1" height="1" fill="#F580FF"/>
<rect x="3" y="5" width="1" height="1" fill="#F580FF"/>
<rect x="4" y="6" width="1" height="1" fill="#F580FF"/>
<rect x="3" y="7" width="1" height="1" fill="#F580FF"/>
<rect x="2" y="8" width="1" height="1" fill="#F580FF"/>
<rect x="1" y="9" width="1" height="1" fill="#F580FF"/>
<rect x="2" y="10" width="1" height="1" fill="#F580FF"/>
</g>
<defs>
<filter id="filter0_d_3_88" x="0" y="0" width="11" height="17" filterUnits="userSpaceOnUse" color-interpolation-filters="sRGB">
<feFlood flood-opacity="0" result="BackgroundImageFix"/>
<feColorMatrix in="SourceAlpha" type="matrix" values="0 0 0 0 0 0 0 0 0 0 0 0 0 0 0 0 0 0 127 0" result="hardAlpha"/>
<feOffset dx="1" dy="1"/>
<feGaussianBlur stdDeviation="0.5"/>
<feComposite in2="hardAlpha" operator="out"/>
<feColorMatrix type="matrix" values="0 0 0 0 0.627451 0 0 0 0 0.329412 0 0 0 0 0.854902 0 0 0 1 0"/>
<feBlend mode="normal" in2="BackgroundImageFix" result="effect1_dropShadow_3_88"/>
<feBlend mode="normal" in="SourceGraphic" in2="effect1_dropShadow_3_88" result="shape"/>
</filter>
</defs>
</svg>
