<svg width="16" height="15" viewBox="0 0 16 15" fill="none" xmlns="http://www.w3.org/2000/svg">
<g filter="url(#filter0_d_3_158)">
<path fill-rule="evenodd" clip-rule="evenodd" d="M4 0H13V1H12V3H11V1H5V3H4V0ZM3 5H4V3H3V5ZM2 7H3V5H2V7ZM1 10H2V7H1V10ZM9 7H8V8H7V9H13V12H1V10H0V13H14V8H9V7ZM10 5V3H11V5H10ZM10 5H9V7H10V5Z" fill="white"/>
<path d="M11 1H5V3H4V5H3V7H2V10H1V12H13V9H7V8H8V7H9V5H10V3H11V1Z" fill="#F580FF"/>
</g>
<defs>
<filter id="filter0_d_3_158" x="0" y="0" width="16" height="15" filterUnits="userSpaceOnUse" color-interpolation-filters="sRGB">
<feFlood flood-opacity="0" result="BackgroundImageFix"/>
<feColorMatrix in="SourceAlpha" type="matrix" values="0 0 0 0 0 0 0 0 0 0 0 0 0 0 0 0 0 0 127 0" result="hardAlpha"/>
<feOffset dx="1" dy="1"/>
<feGaussianBlur stdDeviation="0.5"/>
<feComposite in2="hardAlpha" operator="out"/>
<feColorMatrix type="matrix" values="0 0 0 0 0.627451 0 0 0 0 0.329412 0 0 0 0 0.854902 0 0 0 1 0"/>
<feBlend mode="normal" in2="BackgroundImageFix" result="effect1_dropShadow_3_158"/>
<feBlend mode="normal" in="SourceGraphic" in2="effect1_dropShadow_3_158" result="shape"/>
</filter>
</defs>
</svg>
