<svg width="18" height="15" viewBox="0 0 18 15" fill="none" xmlns="http://www.w3.org/2000/svg">
<g filter="url(#filter0_d_3_114)">
<path d="M13 3H11V4H10V5H9V6H10V7H11V8H12V9H13V8H15V6H14V5H13V3Z" fill="#F580FF"/>
<path fill-rule="evenodd" clip-rule="evenodd" d="M11 1H8V2H6V6H7V7H8V8H9V9H10V10H11V11H13V10H14V9H15V8H16V6H15V5H14V4H13V5H14V6H15V8H13V7H12V6H11V5H10V4H11V3H12V2H11V1ZM10 6H9V5H10V6ZM11 7H10V6H11V7ZM12 8V9H13V8H12ZM12 8H11V7H12V8ZM8 2H10V3H9V4H8V5H7V3H8V2Z" fill="white"/>
<path d="M8 0H7V1H5V0H4V1H3V0H2V1H1V2H0V3H1V4H0V5H1V6H0V7H1V8H0V9H1V10H2V9H3V8H2V7H3V6H4V5H3V4H4V3H5V2H8V0Z" fill="#F580FF"/>
<rect y="10" width="1" height="1" fill="#F580FF"/>
<rect x="1" y="11" width="1" height="1" fill="#F580FF"/>
<rect y="12" width="1" height="1" fill="#F580FF"/>
</g>
<defs>
<filter id="filter0_d_3_114" x="0" y="0" width="18" height="15" filterUnits="userSpaceOnUse" color-interpolation-filters="sRGB">
<feFlood flood-opacity="0" result="BackgroundImageFix"/>
<feColorMatrix in="SourceAlpha" type="matrix" values="0 0 0 0 0 0 0 0 0 0 0 0 0 0 0 0 0 0 127 0" result="hardAlpha"/>
<feOffset dx="1" dy="1"/>
<feGaussianBlur stdDeviation="0.5"/>
<feComposite in2="hardAlpha" operator="out"/>
<feColorMatrix type="matrix" values="0 0 0 0 0.627451 0 0 0 0 0.329412 0 0 0 0 0.854902 0 0 0 1 0"/>
<feBlend mode="normal" in2="BackgroundImageFix" result="effect1_dropShadow_3_114"/>
<feBlend mode="normal" in="SourceGraphic" in2="effect1_dropShadow_3_114" result="shape"/>
</filter>
</defs>
</svg>
